<svg width="25" height="25" viewBox="0 0 25 25" fill="none" xmlns="http://www.w3.org/2000/svg">
<path d="M13.5 6.25C13.5 5.69772 13.0523 5.25 12.5 5.25C11.9477 5.25 11.5 5.69772 11.5 6.25V11.5H6.25C5.69772 11.5 5.25 11.9477 5.25 12.5C5.25 13.0523 5.69772 13.5 6.25 13.5H11.5V18.75C11.5 19.3023 11.9477 19.75 12.5 19.75C13.0523 19.75 13.5 19.3023 13.5 18.75V13.5H18.75C19.3023 13.5 19.75 13.0523 19.75 12.5C19.75 11.9477 19.3023 11.5 18.75 11.5H13.5V6.25ZM24 12.5C24 15.6494 23.9985 17.9267 23.8108 19.6161C23.6223 21.3129 23.2638 22.197 22.7304 22.7304C22.197 23.2638 21.3129 23.6223 19.6161 23.8108C17.9267 23.9985 15.6494 24 12.5 24C9.35057 24 7.07328 23.9985 5.38387 23.8108C3.68708 23.6223 2.80303 23.2638 2.26961 22.7304C1.73618 22.197 1.37773 21.3129 1.1892 19.6161C1.00148 17.9267 1 15.6494 1 12.5C1 9.35057 1.00148 7.07328 1.1892 5.38387C1.37773 3.68708 1.73618 2.80303 2.26961 2.26961C2.80303 1.73618 3.68708 1.37773 5.38387 1.1892C7.07328 1.00148 9.35057 1 12.5 1C15.6494 1 17.9267 1.00148 19.6161 1.1892C21.3129 1.37773 22.197 1.73618 22.7304 2.26961C23.2638 2.80303 23.6223 3.68708 23.8108 5.38387C23.9985 7.07328 24 9.35057 24 12.5Z" fill="white" stroke="#D17267" stroke-width="2" stroke-linecap="round" stroke-linejoin="round"/>
</svg>
